<svg xmlns="http://www.w3.org/2000/svg" viewBox="0 0 63 63">
  <defs>
    <style>
      .cls-1 {
        fill: #ffa648;
      }

      .cls-2 {
        fill: #fff;
      }
    </style>
  </defs>
  <title>Back</title>
  <g id="图层_2" data-name="图层 2">
    <g id="_stickersPage" data-name=" stickersPage">
      <g>
        <circle class="cls-1" cx="31.5" cy="31.5" r="31.5"/>
        <path class="cls-2" d="M53.69,13.43a19.9,19.9,0,0,1-3.42,7.45,18,18,0,0,1-5.6,4.94,15.94,15.94,0,0,1-6.43,2,14.35,14.35,0,0,1-3.1-.07c-.3,0-.59-.09-.88-.15v-7.5L21.51,27.47,8.76,34.84,21.51,42.2l12.75,7.36V42.2l.83-.21a28.19,28.19,0,0,0,2.69-.89,27.18,27.18,0,0,0,4.93-2.5,25.85,25.85,0,0,0,7.46-7.28,23.92,23.92,0,0,0,3.69-8.95A21.88,21.88,0,0,0,53.69,13.43Z"/>
      </g>
    </g>
  </g>
</svg>
