<svg xmlns="http://www.w3.org/2000/svg" viewBox="0 0 254.69 105.16">
  <defs>
    <style>
      .cls-1 {
        fill: #351721;
      }

      .cls-2 {
        fill: #281303;
      }

      .cls-3 {
        fill: #d5d1ad;
      }

      .cls-4 {
        fill: #d1d3d4;
      }

      .cls-5 {
        fill: #414042;
      }

      .cls-6 {
        fill: #ee4b3a;
      }

      .cls-7 {
        fill: #e6e7e8;
      }

      .cls-8 {
        fill: #2d101a;
      }
    </style>
  </defs>
  <title>bathappy</title>
  <g id="图层_2" data-name="图层 2">
    <g id="_stickersPage" data-name=" stickersPage">
      <g id="bat">
        <g>
          <path class="cls-1" d="M109.63,65.67c-.44-.06-34.95-35.45-36-60.55-.24-5.66-21.82-7.56-40.9-.83S0,29.83,0,29.83s16.44-5,23.23,1S35.17,45.49,36,44.71s8.72-4.12,19.12,1.44A35.51,35.51,0,0,1,69.66,60.28s7.49-2,20.61,3.89,26,28.7,24.64,25.52S109.63,65.67,109.63,65.67Z"/>
          <path class="cls-1" d="M139.53,71.31C140,71.41,185,51,195.12,28c2.29-5.19,23.08.9,38.39,14.12s21.17,35.7,21.17,35.7-13.51-10.6-22-7.48-16.45,9.26-16.93,8.23-6.62-7-18.33-5.62a35.51,35.51,0,0,0-18.69,7.87s-6.25-4.57-20.61-3.89S123.41,94.2,125.87,91.75,139.53,71.31,139.53,71.31Z"/>
        </g>
        <g>
          <path class="cls-1" d="M167.4,19.38c-.53-1.28-7.57,1.22-16.76,12.45a37.79,37.79,0,0,0-5.55,8.48,29.05,29.05,0,0,0-10.15-7.41,7.75,7.75,0,0,1,5-1.58c-.15,0-.42-.07-.84-.17-.87-.21-1.76-.52-2.65-.73a5.78,5.78,0,0,0-3.39,0,10.25,10.25,0,0,0,1.19-1.23c-2.57.25-5.54.47-7.85,1.44a6.9,6.9,0,0,1,.15-.89c.51-2.12-1.75.07-2.59,2.37-1.21.24-2.42.54-3.6.88A25.81,25.81,0,0,0,114,35.82c.1-2.45-.34-5.91-2.09-11.3-4.47-13.8-10.12-18.69-11.07-17.69-1.53,1.6-2.56,17.76-.52,25.66,1.81,7,4.64,10.75,5.26,11.52-.1.15-.22.3-.32.45-2.3,3.49,1.8,12.69,1.8,12.69-2.09,2.13-5.62,8.09-7.64,15.88s6.67,19.32,6.53,20.08c-.34,1.85,1.31,8.81,2.1,8.14,1.85-1.58,3.86-5.72,3.86-5.72,4.77,2.93,8.48,3.6,14.67,2.76,0,0,.71,5.75,1.51,6.74,1,1.18,4.43-5.06,4.92-6.82.21-.74,12.44-8.34,13.4-16.32s-.16-14.82-1.33-17.57c0,0,7.17-7.07,6.3-11.16q-.2-.92-.44-1.82a34.63,34.63,0,0,0,7.63-7.86C163.32,36.85,168.25,21.42,167.4,19.38Z"/>
          <path class="cls-1" d="M139.92,31.31c.19,0,.17,0,0,0Z"/>
        </g>
        <g>
          <g>
            <path class="cls-2" d="M121.25,37.29a9,9,0,0,0-10.42,6.58,9,9,0,0,0,17.73,3.34A9,9,0,0,0,121.25,37.29Z"/>
            <circle class="cls-3" cx="119.93" cy="44.1" r="9.05" transform="translate(54.37 153.79) rotate(-79.32)"/>
            <path class="cls-4" d="M121.61,35.21a9,9,0,0,0-10.42,6.58,9,9,0,0,0,17.73,3.34A9,9,0,0,0,121.61,35.21Z"/>
            <circle class="cls-5" cx="119.93" cy="44.1" r="1.96" transform="translate(54.37 153.79) rotate(-79.32)"/>
          </g>
          <g>
            <path class="cls-2" d="M140,40.83a9,9,0,0,0-10.42,6.58,9,9,0,0,0,17.73,3.34A9,9,0,0,0,140,40.83Z"/>
            <circle class="cls-3" cx="138.71" cy="47.65" r="9.05" transform="translate(66.19 175.13) rotate(-79.32)"/>
            <path class="cls-4" d="M140.39,38.75A9,9,0,0,0,130,45.33a9,9,0,0,0,17.73,3.34A9,9,0,0,0,140.39,38.75Z"/>
            <circle class="cls-5" cx="138.71" cy="47.65" r="1.97" transform="translate(66.19 175.13) rotate(-79.32)"/>
          </g>
        </g>
        <path class="cls-6" d="M126.42,58.54c-6.87-1.3-12.83-3.57-16.8-6.15,2.14,3.8,8.41,7.38,16.29,8.87s15,.43,18.4-2.33C139.67,59.89,133.29,59.84,126.42,58.54Z"/>
        <path class="cls-7" d="M119.21,56.73s-2.59,3-3.15,2.66a25,25,0,0,1-.27-3.89Z"/>
        <path class="cls-7" d="M133.35,59.45s1.32,3.72,2,3.63A25,25,0,0,0,137,59.56Z"/>
        <path class="cls-8" d="M114,95.51c-5.32-2.35-9.42-10.3-10.93-15.13s1.31-13.87,3.56-16.92c3-4.13,10.21.76,11.17.94s-8.13-5.71-10.58-9.53S105.55,44,105.55,44h0c-.1.14-.21.28-.3.42-2.3,3.49,1.8,12.69,1.8,12.69-2.09,2.13-5.62,8.09-7.64,15.88s6.67,19.32,6.53,20.08c-.34,1.85,1.31,8.81,2.1,8.14,1.85-1.58,3.86-5.72,3.86-5.72,4.77,2.93,8.48,3.6,14.67,2.76,0,0,.71,5.75,1.51,6.74,1,1.18,4.43-5.06,4.92-6.82a23.08,23.08,0,0,1,2.86-2.39C125.57,98.4,118.23,97.39,114,95.51Z"/>
      </g>
    </g>
  </g>
</svg>
