<svg xmlns="http://www.w3.org/2000/svg" viewBox="0 0 113.48 191.5">
  <defs>
    <style>
      .cls-1 {
        fill: #b53417;
      }

      .cls-2 {
        fill: #942709;
      }

      .cls-3 {
        fill: #fcb912;
      }

      .cls-4 {
        fill: #f7941d;
      }

      .cls-5 {
        fill: #fd0;
      }

      .cls-6 {
        fill: #d53e1f;
      }
    </style>
  </defs>
  <title>besom</title>
  <g id="图层_2" data-name="图层 2">
    <g id="_stickersPage" data-name=" stickersPage">
      <g id="besom">
        <path class="cls-1" d="M14.53,18.5c5.32,15.24,15.91,28.26,20.86,43.62,1.68,5.21,2.68,10.61,4.07,15.9a110.24,110.24,0,0,0,13,30.16c1.42,2.28,3,5.11,1.73,7.49s-5,2.68-7.31,1.16-3.6-4.18-4.76-6.7C29.45,82.41,17.87,54.21,6.29,26c-1.84-4.48-3.68-9-5.16-13.58C.34,10-.35,7.35.19,4.82S2.89-.08,5.47,0C10.7,4.6,12.24,11.93,14.53,18.5Z"/>
        <path class="cls-2" d="M.19,4.82c-.54,2.53.15,5.15.94,7.61C2.61,17,4.45,21.53,6.29,26c11.58,28.2,23.16,56.4,35.85,84.11,1.16,2.53,2.43,5.18,4.76,6.7s6,1.3,7.31-1.16-.3-5.21-1.73-7.49a110.2,110.2,0,0,1-9.67-19.69c-4.52-1.11-8-5.22-9.79-9.64-2-4.91-2.33-10.3-3.56-15.44C26.7,51.9,19.76,41.93,13.53,31.88,7.82,22.66,2.49,12.66,1.6,2A6.79,6.79,0,0,0,.19,4.82Z"/>
        <path class="cls-3" d="M45.6,123.56a35.06,35.06,0,0,1-11.46-8.72,5.09,5.09,0,0,1-1.5-2.91c-.07-1.47,1-2.7,2-3.77a6,6,0,0,1,2.73-1.94c2.12-.51,4,1.33,5.41,3l-.58-5.73a55.12,55.12,0,0,1,6.74-3.5,2.31,2.31,0,0,1,1.27-.28A2.27,2.27,0,0,1,51.61,101a24.81,24.81,0,0,1,1.6,3.25c1.26-1.74,1.42-4,2.29-6s3.18-3.72,5-2.66c1.45.82,1.69,2.76,1.78,4.42L63,114a9.85,9.85,0,0,1-.19,3.17,9.25,9.25,0,0,1-2,3.27A18.55,18.55,0,0,1,56,124.89C54.12,126,47.58,124.5,45.6,123.56Z"/>
        <path class="cls-3" d="M47.36,136.5c-5.6,10.55-13,27-1.65,53.43,2.1,4.88,18.66-3,20.61-4.11s-.27-7.22-.27-7.22,4.17,5,7.2,4.95,19.33-8.57,21-11.7-.46-7.54-.46-7.54l6.5,4.49-1.43-7s5.2,5.24,7.33,4.43,6.88-3.11,7.29-4.65-25.95-39.64-50.56-35C62.91,126.64,50.68,130.24,47.36,136.5Z"/>
        <path class="cls-4" d="M62.91,126.64s-12.23,3.6-15.55,9.86c-5.6,10.55-13,27-1.65,53.43,2.1,4.88,18.66-3,20.61-4.11s-.27-7.22-.27-7.22,4.17,5,7.2,4.95c1.8,0,8.31-3,13.63-6.16h0c-8.39,1.53-16-4.8-22.14-10.68-2.25,1.47-2.77,4.49-3.08,7.16a12.46,12.46,0,0,1-4.09-2.51,5.18,5.18,0,0,0-3,3.46,50.24,50.24,0,0,1-2.32-29l2.55,4.53,3.11-12.16a34.4,34.4,0,0,1,8.28,7.19l.69-8.93a2,2,0,0,1,2.84-2.25l4.56.6c-.67-2.7-1.36-5.42-2.27-8A24.33,24.33,0,0,0,62.91,126.64Z"/>
        <path class="cls-4" d="M63,114l-.27-5.47-5,2.38A18.82,18.82,0,0,0,53,108a10,10,0,0,0-3.27,5.48L45,111.3l.4,6.5a16.4,16.4,0,0,1-9.6-10.74,12.74,12.74,0,0,0-1.16,1.1c-1,1.06-2.09,2.3-2,3.77a5.09,5.09,0,0,0,1.5,2.91,35.06,35.06,0,0,0,11.46,8.72c2,.94,8.52,2.42,10.42,1.33a18.55,18.55,0,0,0,4.81-4.41,9.25,9.25,0,0,0,2-3.27A9.84,9.84,0,0,0,63,114Z"/>
        <path class="cls-1" d="M44.41,123.89c-1.14,3.58.06,12.11,1.84,13.68s23.71-8.5,24.91-10.93-7.65-12.49-10-12.85S46.1,118.57,44.41,123.89Z"/>
        <path class="cls-2" d="M67.43,119.39c-1.72,1.37-3.21,3.5-4.78,5.1-2.78,2.85-7.24,4.36-10.89,2.76a7.12,7.12,0,0,1-3.94-7.57,9.74,9.74,0,0,0-3.42,4.2c-1.14,3.58.06,12.11,1.84,13.68s23.71-8.5,24.91-10.93C71.75,125.42,69.81,122.27,67.43,119.39Z"/>
        <path class="cls-4" d="M54.85,155.27a.54.54,0,0,0-.74.2c-.6,1.2-.05,2.7.18,4,.31,1.73.68,3.44,1.13,5.14.25.92,1.52.53,1.4-.36-.25-1.76-.35-3.53-.59-5.28C56,157.62,56,156.09,54.85,155.27Z"/>
        <path class="cls-4" d="M77,169.38c-1.12-1.25-2.15-2.52-3.36-3.69-1-1-2.31-2.21-3.73-2.29a.83.83,0,0,0-.8,1c.49,1.28,1.74,2.16,2.68,3.13a26.58,26.58,0,0,0,4.05,3.34C76.77,171.57,77.68,170.16,77,169.38Z"/>
        <path class="cls-4" d="M82.65,170.86c-1-.85-2.38.57-1.41,1.43a3.14,3.14,0,0,0,1.38.87c.56.13,1.24-.39,1-1A3,3,0,0,0,82.65,170.86Z"/>
        <path class="cls-4" d="M85.5,151.31c-.6-.87-2-.1-1.43.83a14.25,14.25,0,0,0,4.85,5c.59.35,1.41-.39,1-1C88.62,154.35,86.75,153.14,85.5,151.31Z"/>
        <path class="cls-4" d="M69.92,144.55c-.82-.4-2,.5-1.37,1.37,1.32,1.85,3,3.45,4.28,5.32a36.75,36.75,0,0,0,4.21,4.84c.8.79,2.28-.28,1.6-1.24C76.21,151.36,73.91,146.51,69.92,144.55Z"/>
        <path class="cls-4" d="M62,148.86a15.07,15.07,0,0,0,1.65,2.33c.49.62,1.64-.05,1.35-.78a15.07,15.07,0,0,0-1.2-2.59A1,1,0,0,0,62,148.86Z"/>
        <path class="cls-4" d="M41.28,111a10.94,10.94,0,0,0,1.17,1.67.58.58,0,0,0,1-.56,11,11,0,0,0-.86-1.85A.74.74,0,0,0,41.28,111Z"/>
        <path class="cls-4" d="M46.8,104.42a17.11,17.11,0,0,0,1.56,3.74.72.72,0,0,0,1.32-.54c-.31-1.24-.61-2.47-1-3.69A1,1,0,0,0,46.8,104.42Z"/>
        <path class="cls-5" d="M100.59,149.19c-5.49-6.31-12.06-12.64-20-15.59-.84-.31-1.27,1-.57,1.39,7.12,4.39,12.63,10.52,19,15.78A1.11,1.11,0,0,0,100.59,149.19Z"/>
        <path class="cls-5" d="M105.78,154.33a1.11,1.11,0,0,0-1.92,1.11,9.4,9.4,0,0,0,2.73,3.27c.74.56,1.58-.5,1.2-1.2C107.18,156.4,106.47,155.39,105.78,154.33Z"/>
        <path class="cls-5" d="M58.89,99.2a.9.9,0,0,0-1.5.41c-.26,1.52.5,3.21,1,4.61.36.93,1.94.93,1.87-.24C60.2,102.44,60.07,100.33,58.89,99.2Z"/>
        <path class="cls-6" d="M62,117.61a5.45,5.45,0,0,0-.77-.37,3.56,3.56,0,0,0-1,0,1.75,1.75,0,0,0-1.27.41.9.9,0,0,0-.21.23.8.8,0,0,0,.14.93,1.75,1.75,0,0,0,1.24.57A2.23,2.23,0,0,0,62,119C62.4,118.69,62.59,117.89,62,117.61Z"/>
        <path class="cls-6" d="M55.48,119.7a5.66,5.66,0,0,0-2.87,1.12.81.81,0,0,0,.81,1.4,22.87,22.87,0,0,0,2.47-1A.83.83,0,0,0,55.48,119.7Z"/>
        <path class="cls-6" d="M7,5a.86.86,0,0,0-1.49.86c1.59,2.86,2.65,6,4,8.94.35.75,1.45.21,1.29-.53A26.65,26.65,0,0,0,7,5Z"/>
        <path class="cls-6" d="M12.19,17.79a.83.83,0,0,0-1.38.8,5.15,5.15,0,0,0,1.47,2.21.66.66,0,0,0,1.09-.63A5.15,5.15,0,0,0,12.19,17.79Z"/>
      </g>
    </g>
  </g>
</svg>
