<svg xmlns="http://www.w3.org/2000/svg" viewBox="0 0 98.01 90.88">
  <defs>
    <style>
      .cls-1 {
        fill: #49446b;
      }

      .cls-2 {
        fill: #68a363;
      }

      .cls-3 {
        fill: #458248;
      }

      .cls-4 {
        fill: #5d5885;
      }

      .cls-5 {
        fill: #3e395c;
      }

      .cls-6 {
        fill: #6f6a9e;
      }
    </style>
  </defs>
  <title>blow</title>
  <g id="图层_2" data-name="图层 2">
    <g id="_stickersPage" data-name=" stickersPage">
      <g id="blow">
        <path class="cls-1" d="M16.15,79.62l-.75,4.12a8.12,8.12,0,0,0,0,4.35,2.66,2.66,0,0,0,1.28,1.5,3.86,3.86,0,0,0,2.2.11q3.76-.55,7.47-1.41c1.73-.4,3.6-1,4.62-2.41a4.94,4.94,0,0,0-.41-5.61A10.42,10.42,0,0,0,25.6,77a13.47,13.47,0,0,0-5.26-.94,4.35,4.35,0,0,0-3.7,1.88A5.55,5.55,0,0,0,16.15,79.62Z"/>
        <path class="cls-1" d="M83.44,79.62l.75,4.12a8.12,8.12,0,0,1,0,4.35,2.67,2.67,0,0,1-1.28,1.5,3.86,3.86,0,0,1-2.2.11q-3.76-.55-7.47-1.41c-1.73-.4-3.6-1-4.62-2.41A4.94,4.94,0,0,1,69,80.26,10.42,10.42,0,0,1,74,77a13.47,13.47,0,0,1,5.26-.94A4.35,4.35,0,0,1,83,77.94,5.55,5.55,0,0,1,83.44,79.62Z"/>
        <path class="cls-2" d="M78.83,0c3.23.29,6,2.69,7.51,5.54s2.09,6.12,2.56,9.33a5.34,5.34,0,0,1,0,2.48,4.89,4.89,0,0,1-2.11,2.3,25.17,25.17,0,0,1-12.43,4.18c-3.54.21-7.11-.34-10.64.07-2.92.34-5.75,1.32-8.68,1.44a30.22,30.22,0,0,1-7.56-1c-11.78-2.52-23.87-5-35.81-3.27-1.32.19-3.31-.21-3-1.51a2.29,2.29,0,0,1,.55-.91c2.18-2.7,3.12-6.51,6.06-8.37,4.22-2.66,10.22.19,14.58-2.24,3.43-1.91,5.32-6.8,9.24-6.83,2.92,0,5,2.79,7.7,3.9,3.47,1.43,7.54-.11,11.16.92,1.62.46,3.14,1.44,4.83,1.42a7.39,7.39,0,0,0,4-1.58C70.48,3.32,74.24-.38,78.83,0Z"/>
        <path class="cls-3" d="M88.9,14.9c-.47-3.21-1-6.48-2.56-9.33S82.06.32,78.83,0c-.2,0-.39,0-.58,0a8.82,8.82,0,0,1,2.57,4.42,2.94,2.94,0,0,1,0,1.8,3.52,3.52,0,0,1-1.11,1.25C77.57,9.21,75.22,11,72.49,11c-2.48,0-4.73-1.58-7.2-1.76-2.08-.16-4.09.66-6.16.87a17,17,0,0,1-4.74-.31,7.54,7.54,0,0,0,1.55-.24.62.62,0,0,0,0-1.2,7.16,7.16,0,0,0-2.13-.26.87.87,0,0,0-.58,1.48C52,9.35,50.82,9.11,49.61,9a42.13,42.13,0,0,0-10.21.45A16.91,16.91,0,0,0,34,10.69,16.9,16.9,0,0,0,29.87,14l-5.93,5.75c.88.41,1.78.79,2.67,1.17A171.73,171.73,0,0,1,47.45,24.4a30.21,30.21,0,0,0,7.56,1c2.93-.12,5.76-1.1,8.68-1.44,3.53-.41,7.1.14,10.64-.07a25.16,25.16,0,0,0,12.43-4.18,4.89,4.89,0,0,0,2.11-2.29A5.35,5.35,0,0,0,88.9,14.9Z"/>
        <path class="cls-4" d="M17.95,79.87c5.84,4.85,12.93,8.93,21,10.39a48.3,48.3,0,0,0,21.89-1.62c14.75-4.32,27.07-14,33-26A39.5,39.5,0,0,0,92.52,25a11.32,11.32,0,0,0-2.81-3.47c-2.43-1.85-6-2.2-9.25-2.47-20.32-1.65-41.05-3.27-61,.46a28.34,28.34,0,0,0-9,2.89,18.73,18.73,0,0,0-7.17,8.29C-4.8,47.29,2.71,67.2,17.95,79.87Z"/>
        <path class="cls-1" d="M48.91,11.67C6.25,11.67,2.09,19,1.35,24.17s3.43,4.41,16.92,1.72,18.88-4.17,32.6-4.17,34.57,2.7,41.18,5.39,7.35-11-1.47-12.75S64.35,11.67,48.91,11.67Z"/>
        <path class="cls-5" d="M93.58,23.17a4.79,4.79,0,0,0-2.65,0,.53.53,0,0,0,0,1,4.79,4.79,0,0,0,2.65,0A.59.59,0,0,0,93.58,23.17Z"/>
        <path class="cls-5" d="M88.38,21.8c-1.05.11-2.12.17-3.18.18a16.38,16.38,0,0,0-3.31.05c-.46.1-.37.7,0,.84a9.84,9.84,0,0,0,6.82.14A.66.66,0,0,0,88.38,21.8Z"/>
        <path class="cls-5" d="M92.4,20.48c-.26.07-.47.22-.73.27a.5.5,0,0,0-.12.9A1,1,0,0,0,93,21.12.53.53,0,0,0,92.4,20.48Z"/>
        <path class="cls-1" d="M77.69,76.46c-2,1.18-3.92,2.59-5.95,3.77s-4.39,2-6.08,3.6a.22.22,0,0,0,.15.37c2.06-.17,4.1-1.29,5.94-2.19a26.41,26.41,0,0,0,6.86-4.36A.77.77,0,0,0,77.69,76.46Z"/>
        <path class="cls-1" d="M83.43,72a5.38,5.38,0,0,0-2.14,1.69.54.54,0,0,0,.61.79,6,6,0,0,0,2.22-1.59A.58.58,0,0,0,83.43,72Z"/>
        <path class="cls-1" d="M88.44,66.15a9.38,9.38,0,0,1-1,1.77c-.4.61.42,1.49,1,1a3.07,3.07,0,0,0,1.3-2.61A.7.7,0,0,0,88.44,66.15Z"/>
        <path class="cls-1" d="M77.13,71A5.39,5.39,0,0,1,75,72.6a.7.7,0,0,0,.35,1.3,3.34,3.34,0,0,0,2.84-2.24C78.46,71.06,77.53,70.51,77.13,71Z"/>
        <path class="cls-1" d="M57.71,83.29a6,6,0,0,1-2.43.86c-.73.05-.75,1.16,0,1.15a4.71,4.71,0,0,0,3.07-1.19C58.82,83.72,58.22,83,57.71,83.29Z"/>
        <path class="cls-1" d="M87.89,62.17a6.65,6.65,0,0,1-1.59,1.35.71.71,0,0,0,.54,1.29,3.18,3.18,0,0,0,2.19-2C89.3,62.18,88.34,61.7,87.89,62.17Z"/>
        <path class="cls-1" d="M94.31,52.46a.57.57,0,0,0-1.09,0A7.86,7.86,0,0,0,93,53.79c0,.59,0,1.18.09,1.76a.67.67,0,0,0,1.34,0c0-.49.07-1,.08-1.47A8.23,8.23,0,0,0,94.31,52.46Z"/>
        <path class="cls-6" d="M7.78,31.07c-4.5,1.71-5.06,9.35-3.86,13.26A1.15,1.15,0,0,0,6.18,44c0-3.79-.2-8.63,2.3-11.75C8.88,31.79,8.53,30.79,7.78,31.07Z"/>
        <path class="cls-6" d="M6.37,48.45a.89.89,0,0,0-1.71.47,16.23,16.23,0,0,0,.95,3.93c.32.75,1.56,1,1.77,0C7.74,51.26,6.89,49.91,6.37,48.45Z"/>
        <path class="cls-6" d="M10.17,59.48a4.31,4.31,0,0,1-1-1.92c-.15-.88-1.49-.63-1.51.2a2.86,2.86,0,0,0,1.65,2.8A.69.69,0,0,0,10.17,59.48Z"/>
        <path class="cls-4" d="M10.67,17.44a6.66,6.66,0,0,0-4.05,2.2c-1,.95-2.11,2.35-2.07,3.8a.49.49,0,0,0,.82.34,22.6,22.6,0,0,1,2.78-2.7,36.52,36.52,0,0,0,3.12-2.18A.86.86,0,0,0,10.67,17.44Z"/>
        <path class="cls-4" d="M16.55,15.5a3.87,3.87,0,0,0-2.12.38.81.81,0,0,0,.19,1.47A3.47,3.47,0,0,0,17,17C17.78,16.62,17.28,15.6,16.55,15.5Z"/>
        <path class="cls-3" d="M75.66,6.74c-1.07.15-1.92,1.1-2.86,1.6s-.21,1.47.57,1.34c1.29-.21,2.78-.61,3.27-2C76.86,7.08,76.2,6.66,75.66,6.74Z"/>
        <path class="cls-3" d="M78,4.61a.73.73,0,0,0-1.4,0,.46.46,0,0,1-.18.29c-.76.88.57,2.17,1.27,1.27A1.53,1.53,0,0,0,78,4.61Z"/>
        <path class="cls-3" d="M41.42,6.29c-.82.26-2,.27-2.62.93a.4.4,0,0,0,.08.61c.87.57,2.21-.11,2.92-.64C42.23,6.88,42,6.11,41.42,6.29Z"/>
        <path class="cls-3" d="M30.15,9.23a3.34,3.34,0,0,0-2.21,1.24c-.24.32.15.74.49.64a12.5,12.5,0,0,0,2.09-1C31.06,9.86,30.66,9.14,30.15,9.23Z"/>
        <path class="cls-3" d="M34.23,8.57A1.29,1.29,0,0,0,34,8.2c-.33-.4-1,.24-.57.57a1.29,1.29,0,0,0,.37.24A.32.32,0,0,0,34.23,8.57Z"/>
      </g>
    </g>
  </g>
</svg>
