<svg xmlns="http://www.w3.org/2000/svg" viewBox="0 0 1366 768">
  <defs>
    <style>
      .cls-1 {
        fill: #4d393b;
      }

      .cls-2 {
        fill: #5a4749;
      }
    </style>
  </defs>
  <title>chatingBG</title>
  <g id="图层_2" data-name="图层 2">
    <g id="SecretRoom">
      <g id="BG">
        <rect id="wall" class="cls-1" width="1366" height="768"/>
        <g id="bricks">
          <path class="cls-2" d="M13.06,202.07a16.53,16.53,0,0,0,16.48-16.48V161.84a16.53,16.53,0,0,0-16.48-16.48H0v56.71Z"/>
          <rect class="cls-2" x="36.12" y="145.36" width="154.66" height="56.71" rx="16.48" ry="16.48"/>
          <rect class="cls-2" x="197.35" y="145.36" width="154.66" height="56.71" rx="16.48" ry="16.48"/>
          <rect class="cls-2" x="358.57" y="145.36" width="154.66" height="56.71" rx="16.48" ry="16.48"/>
          <rect class="cls-2" x="519.8" y="145.36" width="154.66" height="56.71" rx="16.48" ry="16.48"/>
          <rect class="cls-2" x="681.03" y="145.36" width="154.66" height="56.71" rx="16.48" ry="16.48"/>
          <rect class="cls-2" x="842.26" y="145.36" width="154.66" height="56.71" rx="16.48" ry="16.48"/>
          <rect class="cls-2" x="1003.49" y="145.36" width="154.66" height="56.71" rx="16.48" ry="16.48"/>
          <rect class="cls-2" x="1164.72" y="145.36" width="154.66" height="56.71" rx="16.48" ry="16.48"/>
          <path class="cls-2" d="M82.29,269.47A16.53,16.53,0,0,0,98.77,253V229.24a16.53,16.53,0,0,0-16.48-16.48H0v56.71Z"/>
          <rect class="cls-2" x="105.35" y="212.76" width="154.66" height="56.71" rx="16.48" ry="16.48"/>
          <rect class="cls-2" x="266.57" y="212.76" width="154.66" height="56.71" rx="16.48" ry="16.48"/>
          <rect class="cls-2" x="427.8" y="212.76" width="154.66" height="56.71" rx="16.48" ry="16.48"/>
          <rect class="cls-2" x="589.03" y="212.76" width="154.66" height="56.71" rx="16.48" ry="16.48"/>
          <rect class="cls-2" x="750.26" y="212.76" width="154.66" height="56.71" rx="16.48" ry="16.48"/>
          <rect class="cls-2" x="911.49" y="212.76" width="154.66" height="56.71" rx="16.48" ry="16.48"/>
          <rect class="cls-2" x="1072.72" y="212.76" width="154.66" height="56.71" rx="16.48" ry="16.48"/>
          <path class="cls-2" d="M33.29,336.87a16.53,16.53,0,0,0,16.48-16.48V296.64a16.53,16.53,0,0,0-16.48-16.48H0v56.71Z"/>
          <rect class="cls-2" x="56.35" y="280.16" width="154.66" height="56.71" rx="16.48" ry="16.48"/>
          <rect class="cls-2" x="217.57" y="280.16" width="154.66" height="56.71" rx="16.48" ry="16.48"/>
          <rect class="cls-2" x="378.8" y="280.16" width="154.66" height="56.71" rx="16.48" ry="16.48"/>
          <rect class="cls-2" x="540.03" y="280.16" width="154.66" height="56.71" rx="16.48" ry="16.48"/>
          <rect class="cls-2" x="701.26" y="280.16" width="154.66" height="56.71" rx="16.48" ry="16.48"/>
          <rect class="cls-2" x="862.49" y="280.16" width="154.66" height="56.71" rx="16.48" ry="16.48"/>
          <rect class="cls-2" x="1023.72" y="280.16" width="154.66" height="56.71" rx="16.48" ry="16.48"/>
          <path class="cls-2" d="M15.83,404.27H137.52A16.53,16.53,0,0,0,154,387.78V364a16.53,16.53,0,0,0-16.48-16.48H15.83A16.54,16.54,0,0,0,0,359.5v32.82A16.54,16.54,0,0,0,15.83,404.27Z"/>
          <rect class="cls-2" x="160.57" y="347.56" width="154.66" height="56.71" rx="16.48" ry="16.48"/>
          <rect class="cls-2" x="321.8" y="347.56" width="154.66" height="56.71" rx="16.48" ry="16.48"/>
          <rect class="cls-2" x="483.03" y="347.56" width="154.66" height="56.71" rx="16.48" ry="16.48"/>
          <rect class="cls-2" x="644.26" y="347.56" width="154.66" height="56.71" rx="16.48" ry="16.48"/>
          <rect class="cls-2" x="805.49" y="347.56" width="154.66" height="56.71" rx="16.48" ry="16.48"/>
          <rect class="cls-2" x="966.72" y="347.56" width="154.66" height="56.71" rx="16.48" ry="16.48"/>
          <path class="cls-2" d="M90.52,471.67A16.53,16.53,0,0,0,107,455.18V431.44A16.53,16.53,0,0,0,90.52,415H0v56.71Z"/>
          <rect class="cls-2" x="113.57" y="414.96" width="154.66" height="56.71" rx="16.48" ry="16.48"/>
          <rect class="cls-2" x="274.8" y="414.96" width="154.66" height="56.71" rx="16.48" ry="16.48"/>
          <rect class="cls-2" x="436.03" y="414.96" width="154.66" height="56.71" rx="16.48" ry="16.48"/>
          <rect class="cls-2" x="597.26" y="414.96" width="154.66" height="56.71" rx="16.48" ry="16.48"/>
          <rect class="cls-2" x="758.49" y="414.96" width="154.66" height="56.71" rx="16.48" ry="16.48"/>
          <rect class="cls-2" x="919.72" y="414.96" width="154.66" height="56.71" rx="16.48" ry="16.48"/>
          <path class="cls-2" d="M33.52,539.07A16.53,16.53,0,0,0,50,522.58V498.84a16.53,16.53,0,0,0-16.48-16.48H0v56.71Z"/>
          <rect class="cls-2" x="56.57" y="482.36" width="154.66" height="56.71" rx="16.48" ry="16.48"/>
          <rect class="cls-2" x="217.8" y="482.36" width="154.66" height="56.71" rx="16.48" ry="16.48"/>
          <rect class="cls-2" x="379.03" y="482.36" width="154.66" height="56.71" rx="16.48" ry="16.48"/>
          <rect class="cls-2" x="540.26" y="482.36" width="154.66" height="56.71" rx="16.48" ry="16.48"/>
          <rect class="cls-2" x="701.49" y="482.36" width="154.66" height="56.71" rx="16.48" ry="16.48"/>
          <rect class="cls-2" x="862.72" y="482.36" width="154.66" height="56.71" rx="16.48" ry="16.48"/>
          <path class="cls-2" d="M16.06,606.47H137.75A16.53,16.53,0,0,0,154.23,590V566.24a16.53,16.53,0,0,0-16.48-16.48H16.06A16.54,16.54,0,0,0,0,562.59v31A16.54,16.54,0,0,0,16.06,606.47Z"/>
          <rect class="cls-2" x="160.8" y="549.76" width="154.66" height="56.71" rx="16.48" ry="16.48"/>
          <rect class="cls-2" x="322.03" y="549.76" width="154.66" height="56.71" rx="16.48" ry="16.48"/>
          <rect class="cls-2" x="483.26" y="549.76" width="154.66" height="56.71" rx="16.48" ry="16.48"/>
          <rect class="cls-2" x="644.49" y="549.76" width="154.66" height="56.71" rx="16.48" ry="16.48"/>
          <rect class="cls-2" x="805.72" y="549.76" width="154.66" height="56.71" rx="16.48" ry="16.48"/>
          <path class="cls-2" d="M73.75,673.87a16.53,16.53,0,0,0,16.48-16.48V633.64a16.53,16.53,0,0,0-16.48-16.48H0v56.71Z"/>
          <rect class="cls-2" x="96.8" y="617.16" width="154.66" height="56.71" rx="16.48" ry="16.48"/>
          <rect class="cls-2" x="258.03" y="617.16" width="154.66" height="56.71" rx="16.48" ry="16.48"/>
          <rect class="cls-2" x="419.26" y="617.16" width="154.66" height="56.71" rx="16.48" ry="16.48"/>
          <rect class="cls-2" x="580.49" y="617.16" width="154.66" height="56.71" rx="16.48" ry="16.48"/>
          <rect class="cls-2" x="741.72" y="617.16" width="154.66" height="56.71" rx="16.48" ry="16.48"/>
          <path class="cls-2" d="M27.75,684.56H0v56.71H27.75a16.53,16.53,0,0,0,16.48-16.48V701A16.53,16.53,0,0,0,27.75,684.56Z"/>
          <rect class="cls-2" x="50.8" y="684.56" width="154.66" height="56.71" rx="16.48" ry="16.48"/>
          <rect class="cls-2" x="212.03" y="684.56" width="154.66" height="56.71" rx="16.48" ry="16.48"/>
          <rect class="cls-2" x="373.26" y="684.56" width="154.66" height="56.71" rx="16.48" ry="16.48"/>
          <rect class="cls-2" x="534.49" y="684.56" width="154.66" height="56.71" rx="16.48" ry="16.48"/>
          <rect class="cls-2" x="695.72" y="684.56" width="154.66" height="56.71" rx="16.48" ry="16.48"/>
          <path class="cls-2" d="M74.06,134.67a16.53,16.53,0,0,0,16.48-16.48V94.44A16.53,16.53,0,0,0,74.06,78H0v56.71Z"/>
          <rect class="cls-2" x="97.12" y="77.96" width="154.66" height="56.71" rx="16.48" ry="16.48"/>
          <rect class="cls-2" x="258.35" y="77.96" width="154.66" height="56.71" rx="16.48" ry="16.48"/>
          <rect class="cls-2" x="419.57" y="77.96" width="154.66" height="56.71" rx="16.48" ry="16.48"/>
          <rect class="cls-2" x="580.8" y="77.96" width="154.66" height="56.71" rx="16.48" ry="16.48"/>
          <rect class="cls-2" x="742.03" y="77.96" width="154.66" height="56.71" rx="16.48" ry="16.48"/>
          <rect class="cls-2" x="903.26" y="77.96" width="154.66" height="56.71" rx="16.48" ry="16.48"/>
          <rect class="cls-2" x="1064.49" y="77.96" width="154.66" height="56.71" rx="16.48" ry="16.48"/>
          <rect class="cls-2" x="1190.89" y="280.16" width="154.66" height="56.71" rx="16.48" ry="16.48"/>
          <rect class="cls-2" x="1133.89" y="347.56" width="154.66" height="56.71" rx="16.48" ry="16.48"/>
          <rect class="cls-2" x="1086.89" y="414.96" width="154.66" height="56.71" rx="16.48" ry="16.48"/>
          <rect class="cls-2" x="1029.89" y="482.36" width="154.66" height="56.71" rx="16.48" ry="16.48"/>
          <rect class="cls-2" x="1191.12" y="482.36" width="154.66" height="56.71" rx="16.48" ry="16.48"/>
          <rect class="cls-2" x="972.89" y="549.76" width="154.66" height="56.71" rx="16.48" ry="16.48"/>
          <rect class="cls-2" x="1134.12" y="549.76" width="154.66" height="56.71" rx="16.48" ry="16.48"/>
          <rect class="cls-2" x="908.89" y="617.16" width="154.66" height="56.71" rx="16.48" ry="16.48"/>
          <rect class="cls-2" x="1070.12" y="617.16" width="154.66" height="56.71" rx="16.48" ry="16.48"/>
          <rect class="cls-2" x="862.89" y="684.56" width="154.66" height="56.71" rx="16.48" ry="16.48"/>
          <rect class="cls-2" x="1024.12" y="684.56" width="154.66" height="56.71" rx="16.48" ry="16.48"/>
          <rect class="cls-2" x="1185.35" y="684.56" width="154.66" height="56.71" rx="16.48" ry="16.48"/>
          <rect class="cls-2" x="10.89" y="10.56" width="154.66" height="56.71" rx="16.48" ry="16.48"/>
          <rect class="cls-2" x="172.12" y="10.56" width="154.66" height="56.71" rx="16.48" ry="16.48"/>
          <rect class="cls-2" x="333.35" y="10.56" width="154.66" height="56.71" rx="16.48" ry="16.48"/>
          <rect class="cls-2" x="494.57" y="10.56" width="154.66" height="56.71" rx="16.48" ry="16.48"/>
          <rect class="cls-2" x="655.8" y="10.56" width="154.66" height="56.71" rx="16.48" ry="16.48"/>
          <rect class="cls-2" x="817.03" y="10.56" width="154.66" height="56.71" rx="16.48" ry="16.48"/>
          <rect class="cls-2" x="978.26" y="10.56" width="154.66" height="56.71" rx="16.48" ry="16.48"/>
          <rect class="cls-2" x="1139.49" y="10.56" width="154.66" height="56.71" rx="16.48" ry="16.48"/>
          <path class="cls-2" d="M1317.2,10.56A16.53,16.53,0,0,0,1300.72,27V50.78a16.53,16.53,0,0,0,16.48,16.48H1365V10.56Z"/>
          <path class="cls-2" d="M1363.89,78H1242.2a16.53,16.53,0,0,0-16.48,16.48v23.74a16.53,16.53,0,0,0,16.48,16.48h121.69c.37,0,.74,0,1.11-.06V78C1364.63,78,1364.27,78,1363.89,78Z"/>
          <path class="cls-2" d="M1348.37,145.36a16.53,16.53,0,0,0-16.48,16.48v23.74a16.53,16.53,0,0,0,16.48,16.48H1365V145.36Z"/>
          <path class="cls-2" d="M1256.37,212.76a16.53,16.53,0,0,0-16.48,16.48V253a16.53,16.53,0,0,0,16.48,16.48H1365V212.76Z"/>
          <path class="cls-2" d="M1352.12,296.64v23.74A16.54,16.54,0,0,0,1365,336.45V280.57A16.54,16.54,0,0,0,1352.12,296.64Z"/>
          <path class="cls-2" d="M1311.6,347.56A16.53,16.53,0,0,0,1295.12,364v23.74a16.53,16.53,0,0,0,16.48,16.48H1365V347.56Z"/>
          <path class="cls-2" d="M1264.6,415a16.53,16.53,0,0,0-16.48,16.48v23.74a16.53,16.53,0,0,0,16.48,16.48H1365V415Z"/>
          <path class="cls-2" d="M1352.35,498.84v23.74a16.54,16.54,0,0,0,12.65,16V482.83A16.54,16.54,0,0,0,1352.35,498.84Z"/>
          <path class="cls-2" d="M1311.83,549.76a16.53,16.53,0,0,0-16.48,16.48V590a16.53,16.53,0,0,0,16.48,16.48H1365V549.76Z"/>
          <path class="cls-2" d="M1247.83,617.16a16.53,16.53,0,0,0-16.48,16.48v23.74a16.53,16.53,0,0,0,16.48,16.48H1365V617.16Z"/>
          <path class="cls-2" d="M1363.06,684.56A16.53,16.53,0,0,0,1346.57,701v23.74a16.53,16.53,0,0,0,16.48,16.48H1365V684.56Z"/>
        </g>
      </g>
    </g>
  </g>
</svg>
