<svg xmlns="http://www.w3.org/2000/svg" viewBox="0 0 1366 768">
  <defs>
    <style>
      .cls-1 {
        fill: #4d393b;
      }

      .cls-2 {
        fill: #5a4749;
      }
    </style>
  </defs>
  <title>BG2</title>
  <g id="图层_2" data-name="图层 2">
    <g id="SecretRoom">
      <g id="brickwall">
        <path class="cls-1" d="M1309.77,712A44.9,44.9,0,0,1,1265,667.23V602.77A44.9,44.9,0,0,1,1309.77,558H1366V526H1197.77A44.9,44.9,0,0,1,1153,481.23V416.77A44.9,44.9,0,0,1,1197.77,372H1366V348H1082.77A44.9,44.9,0,0,1,1038,303.23V238.77A44.9,44.9,0,0,1,1082.77,194H1366V161.77a44.78,44.78,0,0,1-19-36.54V60.77a44.78,44.78,0,0,1,19-36.54V0H0V24.94A44.77,44.77,0,0,1,18,60.77v64.47A44.77,44.77,0,0,1,0,161.06V184H103.23A44.9,44.9,0,0,1,148,228.77v64.47A44.9,44.9,0,0,1,103.23,338H0v34H219.23A44.9,44.9,0,0,1,264,416.77v64.47A44.9,44.9,0,0,1,219.23,526H0v32H329.23A44.9,44.9,0,0,1,374,602.77v64.47A44.9,44.9,0,0,1,329.23,712H0v32H9.23a44.88,44.88,0,0,1,39.61,24H74.15a44.88,44.88,0,0,1,39.61-24H444.23a44.88,44.88,0,0,1,39.61,24h27.31a44.88,44.88,0,0,1,39.61-24H881.23a44.88,44.88,0,0,1,39.61,24h25.31a44.88,44.88,0,0,1,39.61-24h330.47a44.88,44.88,0,0,1,39.61,24H1366V712ZM1089.23,372A44.9,44.9,0,0,1,1134,416.77v64.47A44.9,44.9,0,0,1,1089.23,526H758.77A44.9,44.9,0,0,1,714,481.23V416.77A44.9,44.9,0,0,1,758.77,372ZM643.77,348A44.9,44.9,0,0,1,599,303.23V238.77A44.9,44.9,0,0,1,643.77,194H974.23A44.9,44.9,0,0,1,1019,238.77v64.47A44.9,44.9,0,0,1,974.23,348ZM909,60.77A44.9,44.9,0,0,1,953.77,16h330.47A44.9,44.9,0,0,1,1329,60.77v64.47A44.9,44.9,0,0,1,1284.23,170H953.77A44.9,44.9,0,0,1,909,125.23Zm-439,0A44.9,44.9,0,0,1,514.77,16H845.23A44.9,44.9,0,0,1,890,60.77v64.47A44.9,44.9,0,0,1,845.23,170H514.77A44.9,44.9,0,0,1,470,125.23ZM79.77,170A44.9,44.9,0,0,1,35,125.23V60.77A44.9,44.9,0,0,1,79.77,16H410.23A44.9,44.9,0,0,1,455,60.77v64.47A44.9,44.9,0,0,1,410.23,170Zm129,178A44.9,44.9,0,0,1,164,303.23V238.77A44.9,44.9,0,0,1,208.77,194H539.23A44.9,44.9,0,0,1,584,238.77v64.47A44.9,44.9,0,0,1,539.23,348Zm115,178A44.9,44.9,0,0,1,279,481.23V416.77A44.9,44.9,0,0,1,323.77,372H654.23A44.9,44.9,0,0,1,699,416.77v64.47A44.9,44.9,0,0,1,654.23,526ZM811,667.23A44.9,44.9,0,0,1,766.23,712H435.77A44.9,44.9,0,0,1,391,667.23V602.77A44.9,44.9,0,0,1,435.77,558H766.23A44.9,44.9,0,0,1,811,602.77Zm435,0A44.9,44.9,0,0,1,1201.23,712H870.77A44.9,44.9,0,0,1,826,667.23V602.77A44.9,44.9,0,0,1,870.77,558h330.47A44.9,44.9,0,0,1,1246,602.77Z"/>
        <rect class="cls-2" x="35" y="16" width="420" height="154" rx="44.77" ry="44.77"/>
        <rect class="cls-2" x="470" y="16" width="420" height="154" rx="44.77" ry="44.77"/>
        <rect class="cls-2" x="909" y="16" width="420" height="154" rx="44.77" ry="44.77"/>
        <rect class="cls-2" x="164" y="194" width="420" height="154" rx="44.77" ry="44.77"/>
        <rect class="cls-2" x="599" y="194" width="420" height="154" rx="44.77" ry="44.77"/>
        <path class="cls-2" d="M1038,238.77v64.47A44.9,44.9,0,0,0,1082.77,348H1366V194H1082.77A44.9,44.9,0,0,0,1038,238.77Z"/>
        <rect class="cls-2" x="279" y="372" width="420" height="154" rx="44.77" ry="44.77"/>
        <rect class="cls-2" x="714" y="372" width="420" height="154" rx="44.77" ry="44.77"/>
        <path class="cls-2" d="M1153,416.77v64.47A44.9,44.9,0,0,0,1197.77,526H1366V372H1197.77A44.9,44.9,0,0,0,1153,416.77Z"/>
        <rect class="cls-2" x="391" y="558" width="420" height="154" rx="44.77" ry="44.77"/>
        <rect class="cls-2" x="826" y="558" width="420" height="154" rx="44.77" ry="44.77"/>
        <path class="cls-2" d="M1265,602.77v64.47A44.9,44.9,0,0,0,1309.77,712H1366V558h-56.23A44.9,44.9,0,0,0,1265,602.77Z"/>
        <path class="cls-2" d="M881.23,744H550.77a44.88,44.88,0,0,0-39.61,24H920.85A44.88,44.88,0,0,0,881.23,744Z"/>
        <path class="cls-2" d="M1316.23,744H985.77a44.88,44.88,0,0,0-39.61,24h409.69A44.88,44.88,0,0,0,1316.23,744Z"/>
        <path class="cls-2" d="M9.23,744H0v24H48.85A44.88,44.88,0,0,0,9.23,744Z"/>
        <path class="cls-2" d="M444.23,744H113.77a44.88,44.88,0,0,0-39.61,24H483.85A44.88,44.88,0,0,0,444.23,744Z"/>
        <path class="cls-2" d="M374,667.23V602.77A44.9,44.9,0,0,0,329.23,558H0V712H329.23A44.9,44.9,0,0,0,374,667.23Z"/>
        <path class="cls-2" d="M264,481.23V416.77A44.9,44.9,0,0,0,219.23,372H0V526H219.23A44.9,44.9,0,0,0,264,481.23Z"/>
        <path class="cls-2" d="M148,293.23V228.77A44.9,44.9,0,0,0,103.23,184H0V338H103.23A44.9,44.9,0,0,0,148,293.23Z"/>
        <path class="cls-2" d="M1347,60.77v64.47a44.78,44.78,0,0,0,19,36.54V24.23A44.78,44.78,0,0,0,1347,60.77Z"/>
        <path class="cls-2" d="M18,125.23V60.77A44.77,44.77,0,0,0,0,24.94V161.06A44.77,44.77,0,0,0,18,125.23Z"/>
      </g>
    </g>
  </g>
</svg>
