<svg xmlns="http://www.w3.org/2000/svg" viewBox="0 0 116.34 151.03">
  <defs>
    <style>
      .cls-1 {
        fill: #fdf8c2;
      }

      .cls-2 {
        fill: #351721;
      }

      .cls-3 {
        fill: #e2e0bb;
      }
    </style>
  </defs>
  <title>ghostsss</title>
  <g id="图层_2" data-name="图层 2">
    <g id="_stickersPage" data-name=" stickersPage">
      <g id="ghost">
        <path class="cls-1" d="M66.53,17.36c-9-13.31-22.3-23.1-38.61-13.54-13.72,8-15.74,26-14.9,40.34a122.69,122.69,0,0,0,3.67,23,72.41,72.41,0,0,1,1,28.65c-3.78,25.38-22.89,43.87-16.3,43.77s19-11.52,20.32-6.08c1.45,6.08-.36,11.42,5.15,11.94,4.63.44,16.8-17.94,19-10.41s4.88,24,11,11.52c5.3-10.76,4-12.76,8.48-14.14,5-1.52,6.12,7.22,13.53,10.68,5.42,2.52,5.88-5.9,5.74-10.63a2.42,2.42,0,0,1,1.81-2.25c1.69-.4,3.41,1.31,4.77,2.07,5.38,3,11.45,4,17.41,5.31,1.56.34,10.65,2.38,6.86-1.66-4.94-5.27-12.34-3.57-21.86-29.88-7.94-22-9.32-45.61-16.78-67.7A89.74,89.74,0,0,0,66.53,17.36Z"/>
        <ellipse class="cls-2" cx="33.16" cy="26.95" rx="9.21" ry="10.49" transform="translate(-6.08 10.03) rotate(-15.78)"/>
        <ellipse class="cls-2" cx="53.06" cy="20.73" rx="8.62" ry="9.81" transform="translate(-3.64 15.21) rotate(-15.78)"/>
        <ellipse class="cls-2" cx="49.21" cy="45.97" rx="2.77" ry="4.65" transform="translate(-10.64 15.11) rotate(-15.78)"/>
        <path class="cls-3" d="M40.41,132.34c-3.3,1.67-9.27,9.85-11.56,8.21s-4.08-5.62-2-8.06,3.58-9.32,7.16-22.11,6.16-30,5.57-18.46S38,119.86,38.28,125.14,40.41,132.34,40.41,132.34Z"/>
        <path class="cls-3" d="M48.32,94.83c.51,8.81-3.1,31.27-.59,36.36s4.38,12.45,6.26,8.11,6.8-6.79,5.63-11.7S48.52,83.06,48.32,84.29,48.32,94.83,48.32,94.83Z"/>
        <path class="cls-3" d="M62.2,88.13c.23,7.37,3.73,36.51,7.25,40.81s10.77,10.07,10.2,7.18,1.75-4.69.59-9.83S62.2,88.13,62.2,88.13Z"/>
        <path class="cls-3" d="M24.72,90.7c-.18,1-.37,2-.61,3-2.41,9.7-7.24,19.31-11.79,28.17-6,11.6-10.38,15.43-7.5,13.88s10.17-7.49,13.59-8.39,2.45-11.93,5.47-25.08,3-20.33,2.51-18.9A40.34,40.34,0,0,0,24.72,90.7Z"/>
        <path class="cls-3" d="M80.57,92.85c.63,5.8,1.64,28,5.53,32.38s23.08,11.49,20.85,8.53-8.63-4-15.62-15.31S81.06,83.87,80.24,86.27,80.57,92.85,80.57,92.85Z"/>
        <path class="cls-3" d="M27.91,3.83c-13.72,8-15.74,26-14.9,40.34a122.69,122.69,0,0,0,3.67,23,72.41,72.41,0,0,1,1,28.65,79.48,79.48,0,0,1-7.58,23.09h0c6.91-9.76,8.56-18.29,11.39-33.38S21,55,18.61,47.91,16,33.5,18.61,20.19,30.42,2.5,40.41,1.52A29,29,0,0,1,51.92,3C45-.83,36.9-1.44,27.91,3.83Z"/>
      </g>
    </g>
  </g>
</svg>
