<svg xmlns="http://www.w3.org/2000/svg" viewBox="0 0 77.89 94.75">
  <defs>
    <style>
      .cls-1 {
        fill: #cde1d4;
      }

      .cls-2 {
        fill: #a1bfb0;
      }

      .cls-3 {
        fill: #a52f2f;
      }

      .cls-4 {
        fill: #8e0c0c;
      }

      .cls-5 {
        fill: #c18787;
      }
    </style>
  </defs>
  <title>iconRed</title>
  <g id="图层_2" data-name="图层 2">
    <g id="SecretRoom">
      <g id="redToxicant">
        <path class="cls-1" d="M75.54,78.07,62,54.63,49.5,33V10.66h3.85A5.33,5.33,0,1,0,53.35,0h-29a5.33,5.33,0,0,0,0,10.66h3.85V33L15.67,54.63,2.14,78.07a11.12,11.12,0,0,0,9.63,16.68H65.91A11.12,11.12,0,0,0,75.54,78.07Z"/>
        <path class="cls-2" d="M39.09,94.75H66.16a11.12,11.12,0,0,0,9.63-16.68L62.25,54.63,49.75,33V10.66H53.6A5.33,5.33,0,1,0,53.6,0H39.09Z"/>
        <path class="cls-3" d="M45.91,118.31"/>
        <path class="cls-3" d="M39.68,94.75H11.57c-8.89,0-14.45-9.27-10-16.68L12.46,59.9l26.37-1.27"/>
        <path class="cls-4" d="M39.68,94.75H66.75a11.12,11.12,0,0,0,9.63-16.68l-12-20.72L38.86,58.63Z"/>
        <ellipse class="cls-5" cx="60.11" cy="61.29" rx="3.26" ry="2.66"/>
        <circle class="cls-5" cx="64.55" cy="71.07" r="2.37"/>
        <ellipse class="cls-5" cx="55.37" cy="68.7" rx="2.07" ry="2.37"/>
        <circle class="cls-5" cx="50.63" cy="61.89" r="2.07"/>
      </g>
    </g>
  </g>
</svg>
