<svg xmlns="http://www.w3.org/2000/svg" viewBox="0 0 71.56 103">
  <defs>
    <style>
      .cls-1 {
        fill: #cde1d4;
      }

      .cls-2 {
        fill: #a1bfb0;
      }

      .cls-3 {
        fill: #c86b7e;
      }

      .cls-4 {
        fill: #aa5065;
      }
    </style>
  </defs>
  <title>iconPink</title>
  <g id="图层_2" data-name="图层 2">
    <g id="SecretRoom">
      <g id="pinkToxicant">
        <path class="cls-1" d="M48,34.2V12h4.35a6,6,0,0,0,0-12H19.61a6,6,0,0,0,0,12H24V34.2A35.45,35.45,0,1,0,48,34.2Z"/>
        <path class="cls-2" d="M36.12,103a35.45,35.45,0,0,0,12-68.8V12H52.5a6,6,0,0,0,0-12H36.12Z"/>
        <path class="cls-3" d="M60,42A35.45,35.45,0,1,1,8.75,44.24Z"/>
        <path class="cls-4" d="M35.29,43.1,60.68,42a35.45,35.45,0,0,1-24.56,61"/>
        <circle class="cls-3" cx="57.52" cy="68.89" r="2.01"/>
        <ellipse class="cls-3" cx="52.84" cy="88.29" rx="2.01" ry="4.68"/>
        <ellipse class="cls-3" cx="64.21" cy="79.59" rx="1.34" ry="2.01"/>
      </g>
    </g>
  </g>
</svg>
