<svg xmlns="http://www.w3.org/2000/svg" viewBox="0 0 102.25 87.12">
  <defs>
    <style>
      .cls-1 {
        fill: #e8e5cd;
      }

      .cls-2 {
        fill: #c9c49a;
      }
    </style>
  </defs>
  <title>skull</title>
  <g id="图层_2" data-name="图层 2">
    <g id="_stickersPage" data-name=" stickersPage">
      <g id="skull">
        <path class="cls-1" d="M97.82,19.27C81.54-5.38,20.35-8.88,2.91,23.52-9.6,46.75,21.6,67.3,32.17,68.08c0,0-6.11,15.91,3.15,17s14-9.52,14-9.52S49.44,88.14,60.42,87,67.77,74.9,67.77,74.9,77.55,86,84,78.9s-3.77-12.41-3.77-12.41S114.1,43.93,97.82,19.27Zm-61,32.53c-20.29,3.44-25.34-26.46-5.65-27.53C54.92,23,57.07,48.36,36.77,51.8ZM65.53,62c-3.25,2.46-15.76,3.36-16.86.66S53,49.13,56.85,49.9C60.55,50.63,68.79,59.53,65.53,62ZM75.67,46.47C55.37,49.92,50.33,20,70,18.94,93.81,17.64,96,43,75.67,46.47Z"/>
        <g>
          <path class="cls-2" d="M60.42,87a9.51,9.51,0,0,0,5.34-2,18.7,18.7,0,0,1-9.12-.76c-3.45-1.3-6.43-4.2-7.11-7.82l-.12.35C49.77,79.93,51.56,87.93,60.42,87Z"/>
          <path class="cls-2" d="M35.32,85.12a10.87,10.87,0,0,0,2.16,0c-1.93-1.63-2.23-4.56-1.72-7.05.68-3.35,2.45-6.38,3.48-9.64s1.17-7.17-1.08-9.75a19.29,19.29,0,0,0-4-3,21.8,21.8,0,0,1-4.53-4.16C19.72,49,16,36.92,20.72,29.72,19.6,22.86,20,15.81,24.1,10.4a30.21,30.21,0,0,1,7.15-6.33c1.13-.78,2.28-1.55,3.46-2.26-13.51,3-25.5,10-31.8,21.72C-9.6,46.75,21.6,67.3,32.17,68.08,32.17,68.08,26.06,84,35.32,85.12Z"/>
          <path class="cls-2" d="M84,78.9a10.26,10.26,0,0,0,.92-1.18,33.87,33.87,0,0,1-14.76-2.6l-.09,2C73.37,79.93,79.5,83.84,84,78.9Z"/>
        </g>
        <path class="cls-2" d="M29.79,9.27a9.1,9.1,0,0,0-5.46,5.52c-.17.64.7,1.24,1.17.68.72-.84,1.21-1.83,1.89-2.7a10.41,10.41,0,0,1,2.81-2.54C30.7,9.93,30.38,9.08,29.79,9.27Z"/>
        <path class="cls-2" d="M24.24,18.81a.88.88,0,0,0-1.71-.23,5.37,5.37,0,0,0,0,3.46.82.82,0,0,0,1.61-.22A16.09,16.09,0,0,0,24.24,18.81Z"/>
        <path class="cls-2" d="M43.4,63.6a.71.71,0,0,0-1.31.35,12.61,12.61,0,0,1-.38,4.37c-.44,1.52-1.37,2.87-1.64,4.43-.13.77.78,1.48,1.4.82C43.61,71.28,44.76,66.51,43.4,63.6Z"/>
        <path class="cls-2" d="M39.37,76.08a3.65,3.65,0,0,0-.31,2.3.75.75,0,0,0,1.36.18,5.66,5.66,0,0,0,.34-2.29C40.82,75.43,39.63,75.36,39.37,76.08Z"/>
        <path class="cls-2" d="M60.76,80.82A9,9,0,0,1,58,79.36c-.79-.57-1.78.73-1,1.34a4.92,4.92,0,0,0,3.61,1.44A.68.68,0,0,0,60.76,80.82Z"/>
      </g>
    </g>
  </g>
</svg>
