<svg xmlns="http://www.w3.org/2000/svg" viewBox="0 0 118.84 127.44">
  <defs>
    <style>
      .cls-1 {
        isolation: isolate;
      }

      .cls-2 {
        fill: #58595b;
      }

      .cls-3 {
        fill: #939598;
      }

      .cls-4, .cls-5 {
        fill: #6d6e71;
      }

      .cls-4 {
        opacity: 0.22;
        mix-blend-mode: multiply;
      }
    </style>
  </defs>
  <title>tomb</title>
  <g class="cls-1">
    <g id="图层_2" data-name="图层 2">
      <g id="_stickersPage" data-name=" stickersPage">
        <g id="tomb">
          <g>
            <g>
              <path class="cls-2" d="M66.3,0A43.93,43.93,0,0,0,22.37,43.93v72.62h87.86V43.93A43.93,43.93,0,0,0,66.3,0Z"/>
              <path class="cls-3" d="M57.31,0A43.93,43.93,0,0,0,13.39,43.93v72.62h87.86V43.93A43.93,43.93,0,0,0,57.31,0Z"/>
              <path class="cls-4" d="M63,.38A43.86,43.86,0,0,0,13.39,43.93v72.62H24.81V43.93A43.93,43.93,0,0,1,63,.38Z"/>
            </g>
            <rect class="cls-5" y="112.67" width="118.84" height="14.77"/>
          </g>
          <g>
            <path class="cls-2" d="M38.15,64.67l-.55,2.65a.84.84,0,0,1-.32.51,1.16,1.16,0,0,1-.76,0c-.43-.11-.82-.2-1.16-.26a3.46,3.46,0,0,1-1-.34,1.45,1.45,0,0,1-.63-.64,2.07,2.07,0,0,1-.12-1l.13-1.47c.05-.65.12-1.37.2-2.18s.17-1.69.27-2.62.22-1.86.34-2.8.25-1.84.4-2.72.3-1.66.46-2.36A11.22,11.22,0,0,1,36,49.7a1.66,1.66,0,0,1,.61-.85q1.5-.68,3.12-1.33a16,16,0,0,1,3.21-.93,8.88,8.88,0,0,1,3,0,4.51,4.51,0,0,1,2.47,1.26,14.75,14.75,0,0,1,1.53,2A8.42,8.42,0,0,1,51,52.34,3.91,3.91,0,0,1,50.75,55,8.7,8.7,0,0,1,48,58.06a26.32,26.32,0,0,1-4.64,2.6c.37.42.78.86,1.22,1.33s.9.93,1.37,1.4.93.91,1.38,1.35.89.81,1.29,1.13.47.49.43.65a.93.93,0,0,1-.41.5,1.94,1.94,0,0,1-.73.4l-.74.13a3.36,3.36,0,0,1-1.17.08,3.63,3.63,0,0,1-1.48-.57q-.55-.38-1.28-1c-.48-.39-1-.81-1.5-1.28s-1-1-1.54-1.46a18.34,18.34,0,0,1-1.4-1.53C38.54,62.83,38.34,63.77,38.15,64.67Zm2.45-10c-.24.94-.51,1.93-.82,3a13.73,13.73,0,0,0,3-1.36,13.32,13.32,0,0,0,2.16-1.64,6.16,6.16,0,0,0,1.25-1.58,1.56,1.56,0,0,0,.24-1.16q-.29-.68-1.71-.68a8.1,8.1,0,0,0-1.54.17,7.39,7.39,0,0,0-1.79.63C41.09,52.88,40.84,53.75,40.6,54.68Z"/>
            <path class="cls-2" d="M61.4,49.14a1.68,1.68,0,0,1,0,1c-.22.72-.47,1.55-.74,2.48s-.53,1.92-.79,3-.53,2.1-.78,3.19-.51,2.15-.75,3.19-.46,2-.66,2.94-.37,1.75-.52,2.47a.87.87,0,0,1-.33.53,1.3,1.3,0,0,1-.83,0l-1.19-.33a5.78,5.78,0,0,1-1.07-.44,1.5,1.5,0,0,1-.74-.61,1.69,1.69,0,0,1-.11-1c0-.56.1-1.29.21-2.18s.23-1.87.38-2.93S53.77,58.2,54,57s.39-2.32.59-3.45.41-2.19.62-3.2.4-1.89.58-2.64a1.26,1.26,0,0,1,.59-.86,1.75,1.75,0,0,1,1.12.06,11.5,11.5,0,0,1,3.14,1.4A2.11,2.11,0,0,1,61.4,49.14Z"/>
            <path class="cls-2" d="M68.2,65c-.16.85-.32,1.68-.45,2.51a.82.82,0,0,1-.33.51,1.43,1.43,0,0,1-.84,0l-1.22-.32a4.61,4.61,0,0,1-1-.41,1.72,1.72,0,0,1-.69-.64,1.35,1.35,0,0,1-.09-1,9.75,9.75,0,0,0,.4-2q.18-1.38.33-3.13c.1-1.16.19-2.37.29-3.63s.19-2.41.29-3.47.21-1.95.33-2.67.26-1.11.42-1.19c.61-.32,1.28-.66,2-1s1.5-.66,2.29-.94a21.31,21.31,0,0,1,2.38-.7,11.17,11.17,0,0,1,2.3-.3,6.87,6.87,0,0,1,2.06.25,3.9,3.9,0,0,1,1.65,1,15.94,15.94,0,0,1,1.51,2,8.42,8.42,0,0,1,1.07,2.57A3.92,3.92,0,0,1,80.59,55a5.87,5.87,0,0,1-.7,1.11,12.41,12.41,0,0,1-.92,1,13.42,13.42,0,0,1-2,1.59,22.09,22.09,0,0,1-2.49,1.45,27.21,27.21,0,0,1-2.84,1.22c-1,.36-2,.67-2.93.93Q68.45,63.68,68.2,65Zm4.57-8.5a10.89,10.89,0,0,0,2.1-1.61A5.49,5.49,0,0,0,76,53.24a1.77,1.77,0,0,0,.15-1.3c0-.19-.23-.34-.52-.45a3.07,3.07,0,0,0-1.13-.13,8.36,8.36,0,0,0-1.54.22,9.78,9.78,0,0,0-1.75.58q-.38,1.3-.73,2.7c-.23.93-.47,1.9-.71,2.92A13.13,13.13,0,0,0,72.77,56.46Z"/>
          </g>
        </g>
      </g>
    </g>
  </g>
</svg>
